# Blender 4.2.1 LTS
# www.blender.org
o barrel
v 0.131859 -0.377894 0.202123
v 0.031103 -0.377894 0.239317
v -0.206498 -0.377894 -0.124895
v -0.131859 -0.377895 -0.202122
v 0.254934 -0.198916 0.154190
v 0.162787 -0.198916 0.249532
v 0.137500 -0.397951 0.210770
v 0.215333 -0.397951 0.130238
v 0.296588 -0.198916 0.028309
v 0.250517 -0.397951 0.023912
v 0.279500 -0.198916 -0.103179
v 0.236082 -0.397951 -0.087151
v 0.207053 -0.198916 -0.214231
v 0.174890 -0.397951 -0.180953
v 0.093597 -0.198916 -0.282852
v 0.079058 -0.397952 -0.238914
v -0.038397 -0.198916 -0.295451
v -0.032432 -0.397952 -0.249556
v -0.162787 -0.198916 -0.249532
v -0.137500 -0.397952 -0.210770
v -0.254934 -0.198916 -0.154190
v -0.215333 -0.397951 -0.130238
v -0.296588 -0.198916 -0.028309
v -0.250517 -0.397951 -0.023911
v -0.279500 -0.198916 0.103179
v -0.236082 -0.397951 0.087152
v -0.207053 -0.198916 0.214231
v -0.174889 -0.397951 0.180953
v -0.093597 -0.198916 0.282852
v -0.079058 -0.397951 0.238914
v 0.038398 -0.198916 0.295451
v 0.032434 -0.397951 0.249556
v 0.268134 0.000118 0.162174
v 0.171216 0.000118 0.262452
v 0.311945 0.000119 0.029775
v 0.293971 0.000118 -0.108522
v 0.217773 0.000118 -0.225324
v 0.098443 0.000119 -0.297498
v -0.040385 0.000119 -0.310749
v -0.171216 0.000118 -0.262452
v -0.268134 0.000119 -0.162174
v -0.311946 0.000119 -0.029775
v -0.293972 0.000119 0.108521
v -0.217774 0.000118 0.225324
v -0.098443 0.000119 0.297499
v 0.040386 0.000118 0.310749
v 0.254934 0.199153 0.154190
v 0.162787 0.199153 0.249532
v 0.296588 0.199153 0.028309
v 0.279500 0.199153 -0.103179
v 0.207053 0.199153 -0.214231
v 0.093597 0.199153 -0.282852
v -0.038397 0.199153 -0.295451
v -0.162787 0.199153 -0.249532
v -0.254934 0.199153 -0.154190
v -0.296588 0.199153 -0.028309
v -0.279500 0.199153 0.103179
v -0.207053 0.199153 0.214231
v -0.093597 0.199153 0.282852
v 0.038398 0.199153 0.295451
v 0.215333 0.398188 0.130238
v 0.137500 0.398188 0.210770
v 0.250517 0.398188 0.023912
v 0.236082 0.398188 -0.087151
v 0.174890 0.398188 -0.180953
v 0.079058 0.398188 -0.238914
v -0.032432 0.398188 -0.249556
v -0.137500 0.398188 -0.210770
v -0.215333 0.398188 -0.130238
v -0.250517 0.398188 -0.023911
v -0.236082 0.398188 0.087152
v -0.174889 0.398188 0.180953
v -0.079058 0.398188 0.238914
v 0.032434 0.398188 0.249556
v -0.075814 0.377070 0.229112
v 0.031103 0.377070 0.239317
v -0.206498 0.377070 -0.124895
v -0.240238 0.377070 -0.022931
v 0.240238 -0.377894 0.022930
v 0.075814 -0.377895 -0.229112
v 0.167714 -0.377894 -0.173529
v 0.226396 -0.377894 -0.083575
v 0.075814 0.377070 -0.229112
v 0.240238 0.377070 0.022930
v 0.226396 0.377070 -0.083575
v 0.167714 0.377070 -0.173529
v 0.206498 -0.377894 0.124895
v -0.031102 -0.377895 -0.239317
v -0.031102 0.377070 -0.239317
v 0.206498 0.377070 0.124895
v -0.131859 0.377070 -0.202122
v 0.131859 0.377070 0.202123
v -0.075814 -0.377894 0.229112
v -0.240238 -0.377894 -0.022931
v -0.226397 0.377070 0.083576
v -0.167714 0.377070 0.173529
v -0.167714 -0.377894 0.173529
v -0.226397 -0.377894 0.083576
v 0.131859 -0.397951 0.202123
v 0.206498 -0.397951 0.124895
v 0.031103 -0.397951 0.239317
v -0.075814 -0.397951 0.229112
v -0.167714 -0.397951 0.173529
v -0.226397 -0.397951 0.083576
v -0.240238 -0.397951 -0.022931
v -0.206498 -0.397951 -0.124895
v -0.131859 -0.397952 -0.202122
v -0.031102 -0.397952 -0.239317
v 0.075814 -0.397952 -0.229112
v 0.167714 -0.397951 -0.173529
v 0.226396 -0.397951 -0.083575
v 0.240238 -0.397951 0.022930
v 0.206498 0.398188 0.124895
v 0.131859 0.398188 0.202123
v 0.240238 0.398188 0.022930
v 0.226396 0.398188 -0.083575
v 0.167714 0.398188 -0.173529
v 0.075814 0.398188 -0.229112
v -0.031102 0.398188 -0.239317
v -0.131859 0.398188 -0.202122
v -0.206498 0.398188 -0.124895
v -0.240238 0.398188 -0.022931
v -0.226397 0.398188 0.083576
v -0.167714 0.398188 0.173529
v -0.075814 0.398188 0.229112
v 0.031103 0.398188 0.239317
vn -0.0000 -1.0000 -0.0000
vn 0.8452 -0.1524 0.5122
vn 0.5393 -0.1524 0.8282
vn 0.4688 -0.2259 0.8539
vn 0.7929 -0.2259 0.5659
vn 0.9838 -0.1524 0.0947
vn 0.9599 -0.2259 0.1659
vn 0.9275 -0.1524 -0.3415
vn 0.9368 -0.2259 -0.2671
vn 0.6874 -0.1524 -0.7101
vn 0.7282 -0.2259 -0.6471
vn 0.3113 -0.1524 -0.9380
vn 0.3753 -0.2259 -0.8990
vn -0.1265 -0.1524 -0.9802
vn -0.0519 -0.2259 -0.9728
vn -0.5393 -0.1524 -0.8282
vn -0.4688 -0.2259 -0.8539
vn -0.8452 -0.1524 -0.5122
vn -0.7929 -0.2259 -0.5659
vn -0.9838 -0.1524 -0.0947
vn -0.9599 -0.2259 -0.1659
vn -0.9275 -0.1524 0.3415
vn -0.9368 -0.2259 0.2671
vn -0.6874 -0.1524 0.7101
vn -0.7282 -0.2259 0.6471
vn -0.3113 -0.1523 0.9380
vn -0.3753 -0.2259 0.8990
vn 0.1265 -0.1524 0.9802
vn 0.0519 -0.2259 0.9728
vn 0.8557 -0.0000 0.5175
vn 0.5464 -0.0000 0.8375
vn 0.9955 -0.0000 0.0950
vn 0.9381 -0.0000 -0.3463
vn 0.6950 -0.0000 -0.7191
vn 0.3141 -0.0000 -0.9494
vn -0.1289 -0.0000 -0.9917
vn -0.5464 -0.0000 -0.8375
vn -0.8557 -0.0000 -0.5175
vn -0.9955 -0.0000 -0.0950
vn -0.9381 -0.0000 0.3463
vn -0.6950 -0.0000 0.7191
vn -0.3141 -0.0000 0.9494
vn 0.1289 -0.0000 0.9917
vn 0.8461 0.1524 0.5108
vn 0.5407 0.1525 0.8273
vn 0.9839 0.1524 0.0931
vn 0.9268 0.1524 -0.3431
vn 0.6862 0.1524 -0.7112
vn 0.3097 0.1524 -0.9385
vn -0.1282 0.1524 -0.9800
vn -0.5407 0.1524 -0.8273
vn -0.8461 0.1524 -0.5108
vn -0.9839 0.1524 -0.0931
vn -0.9268 0.1524 0.3431
vn -0.6862 0.1524 0.7112
vn -0.3097 0.1524 0.9385
vn 0.1282 0.1524 0.9800
vn 0.8694 0.2259 0.4395
vn 0.5926 0.2259 0.7732
vn 0.9740 0.2259 0.0187
vn 0.8856 0.2259 -0.4057
vn 0.6219 0.2259 -0.7498
vn 0.2350 0.2259 -0.9454
vn -0.1985 0.2259 -0.9537
vn -0.5926 0.2259 -0.7732
vn -0.8694 0.2259 -0.4395
vn -0.9740 0.2259 -0.0187
vn -0.8856 0.2259 0.4057
vn -0.6219 0.2259 0.7498
vn -0.2350 0.2259 0.9454
vn 0.1985 0.2259 0.9537
vn -0.0000 1.0000 -0.0000
vn -0.4813 -0.0000 -0.8766
vn -0.8140 -0.0000 -0.5809
vn -0.8925 -0.0000 -0.4511
vn -0.6083 -0.0000 -0.7937
vn -0.0533 -0.0000 -0.9986
vn -0.2037 -0.0000 -0.9790
vn 0.3853 -0.0000 -0.9228
vn 0.2412 -0.0000 -0.9705
vn 0.7475 -0.0000 -0.6643
vn 0.6384 -0.0000 -0.7697
vn 0.9617 -0.0000 -0.2741
vn 0.9091 -0.0000 -0.4165
vn 0.9854 -0.0000 0.1703
vn 0.9998 -0.0000 0.0192
vn 0.8140 -0.0000 0.5809
vn 0.8925 -0.0000 0.4511
vn 0.4813 -0.0000 0.8766
vn 0.6083 -0.0000 0.7937
vn 0.0533 -0.0000 0.9986
vn 0.2037 -0.0000 0.9790
vn -0.3853 -0.0000 0.9228
vn -0.2412 -0.0000 0.9705
vn -0.7475 -0.0000 0.6643
vn -0.6384 -0.0000 0.7697
vn -0.9617 -0.0000 0.2741
vn -0.9091 -0.0000 0.4165
vn -0.9854 -0.0000 -0.1703
vn -0.9998 -0.0000 -0.0192
vt 0.512400 0.749500
vt 0.535000 0.848700
vt 0.946700 0.848700
vt 0.969300 0.749500
vt 0.996700 0.129700
vt 0.924200 0.129700
vt 0.924200 0.001800
vt 0.996700 0.001800
vt 0.075100 0.129700
vt 0.003800 0.129700
vt 0.003800 0.001800
vt 0.075100 0.001800
vt 0.144900 0.129700
vt 0.144900 0.001800
vt 0.214100 0.129700
vt 0.214100 0.001800
vt 0.283900 0.129700
vt 0.283900 0.001800
vt 0.355200 0.129700
vt 0.355200 0.001800
vt 0.427700 0.129700
vt 0.427700 0.001800
vt 0.500200 0.129700
vt 0.500200 0.001800
vt 0.571500 0.129700
vt 0.571500 0.001800
vt 0.641400 0.129700
vt 0.641400 0.001800
vt 0.710600 0.129700
vt 0.710600 0.001800
vt 0.780400 0.129700
vt 0.780400 0.001800
vt 0.851700 0.129700
vt 0.851700 0.001800
vt 0.996700 0.257700
vt 0.924200 0.257700
vt 0.075100 0.257700
vt 0.003800 0.257700
vt 0.144900 0.257700
vt 0.214100 0.257700
vt 0.283900 0.257700
vt 0.355200 0.257700
vt 0.427700 0.257700
vt 0.500200 0.257700
vt 0.571500 0.257700
vt 0.641400 0.257700
vt 0.710600 0.257700
vt 0.780400 0.257700
vt 0.851700 0.257700
vt 0.996700 0.385700
vt 0.924200 0.385700
vt 0.075100 0.385700
vt 0.003800 0.385700
vt 0.144900 0.385700
vt 0.214100 0.385700
vt 0.283900 0.385700
vt 0.355200 0.385700
vt 0.427700 0.385700
vt 0.500200 0.385700
vt 0.571500 0.385700
vt 0.641400 0.385700
vt 0.710600 0.385700
vt 0.780400 0.385700
vt 0.851700 0.385700
vt 0.996700 0.513600
vt 0.924200 0.513600
vt 0.075100 0.513600
vt 0.003800 0.513600
vt 0.144900 0.513600
vt 0.214100 0.513600
vt 0.283900 0.513600
vt 0.355200 0.513600
vt 0.427700 0.513600
vt 0.500200 0.513600
vt 0.571500 0.513600
vt 0.641400 0.513600
vt 0.710600 0.513600
vt 0.780400 0.513600
vt 0.851700 0.513600
vt 0.102500 0.928200
vt 0.039100 0.848700
vt 0.450800 0.848700
vt 0.387400 0.928200
vt 0.598400 0.570900
vt 0.883300 0.570900
vt 0.791700 0.526800
vt 0.690000 0.526800
vt 0.387400 0.570900
vt 0.102500 0.570900
vt 0.194100 0.526800
vt 0.295800 0.526800
vt 0.535000 0.650400
vt 0.946700 0.650400
vt 0.450800 0.650400
vt 0.039100 0.650400
vt 0.473400 0.749500
vt 0.016500 0.749500
vt 0.598400 0.928200
vt 0.883300 0.928200
vt 0.295800 0.972300
vt 0.194100 0.972300
vt 0.690000 0.972300
vt 0.791700 0.972300
vt 0.924200 0.008900
vt 0.996700 0.008900
vt 0.851700 0.008900
vt 0.780400 0.008900
vt 0.710600 0.008900
vt 0.641400 0.008900
vt 0.571500 0.008900
vt 0.500200 0.008900
vt 0.427700 0.008900
vt 0.355200 0.008900
vt 0.283900 0.008900
vt 0.214100 0.008900
vt 0.144900 0.008900
vt 0.075100 0.008900
vt 0.003800 0.008900
vt 0.996700 0.501800
vt 0.924200 0.501800
vt 0.075100 0.501800
vt 0.003800 0.501800
vt 0.144900 0.501800
vt 0.214100 0.501800
vt 0.283900 0.501800
vt 0.355200 0.501800
vt 0.427700 0.501800
vt 0.500200 0.501800
vt 0.571500 0.501800
vt 0.641400 0.501800
vt 0.710600 0.501800
vt 0.780400 0.501800
vt 0.851700 0.501800
vt 0.924200 0.021800
vt 0.996700 0.021800
vt 0.851700 0.021800
vt 0.780400 0.021800
vt 0.710600 0.021800
vt 0.641400 0.021800
vt 0.571500 0.021800
vt 0.500200 0.021800
vt 0.427700 0.021800
vt 0.355200 0.021800
vt 0.283900 0.021800
vt 0.214100 0.021800
vt 0.144900 0.021800
vt 0.075100 0.021800
vt 0.003800 0.021800
vt 0.996700 0.488300
vt 0.924200 0.488300
vt 0.075100 0.488300
vt 0.003800 0.488300
vt 0.144900 0.488300
vt 0.214100 0.488300
vt 0.283900 0.488300
vt 0.355200 0.488300
vt 0.427700 0.488300
vt 0.500200 0.488300
vt 0.571500 0.488300
vt 0.641400 0.488300
vt 0.710600 0.488300
vt 0.780400 0.488300
vt 0.851700 0.488300
s 1
f 1/1/1 2/2/1 3/3/1 4/4/1
f 5/5/2 6/6/3 7/7/4 8/8/5
f 9/9/6 5/10/2 8/11/5 10/12/7
f 11/13/8 9/9/6 10/12/7 12/14/9
f 13/15/10 11/13/8 12/14/9 14/16/11
f 15/17/12 13/15/10 14/16/11 16/18/13
f 17/19/14 15/17/12 16/18/13 18/20/15
f 19/21/16 17/19/14 18/20/15 20/22/17
f 21/23/18 19/21/16 20/22/17 22/24/19
f 23/25/20 21/23/18 22/24/19 24/26/21
f 25/27/22 23/25/20 24/26/21 26/28/23
f 27/29/24 25/27/22 26/28/23 28/30/25
f 29/31/26 27/29/24 28/30/25 30/32/27
f 31/33/28 29/31/26 30/32/27 32/34/29
f 6/6/3 31/33/28 32/34/29 7/7/4
f 33/35/30 34/36/31 6/6/3 5/5/2
f 35/37/32 33/38/30 5/10/2 9/9/6
f 36/39/33 35/37/32 9/9/6 11/13/8
f 37/40/34 36/39/33 11/13/8 13/15/10
f 38/41/35 37/40/34 13/15/10 15/17/12
f 39/42/36 38/41/35 15/17/12 17/19/14
f 40/43/37 39/42/36 17/19/14 19/21/16
f 41/44/38 40/43/37 19/21/16 21/23/18
f 42/45/39 41/44/38 21/23/18 23/25/20
f 43/46/40 42/45/39 23/25/20 25/27/22
f 44/47/41 43/46/40 25/27/22 27/29/24
f 45/48/42 44/47/41 27/29/24 29/31/26
f 46/49/43 45/48/42 29/31/26 31/33/28
f 34/36/31 46/49/43 31/33/28 6/6/3
f 47/50/44 48/51/45 34/36/31 33/35/30
f 49/52/46 47/53/44 33/38/30 35/37/32
f 50/54/47 49/52/46 35/37/32 36/39/33
f 51/55/48 50/54/47 36/39/33 37/40/34
f 52/56/49 51/55/48 37/40/34 38/41/35
f 53/57/50 52/56/49 38/41/35 39/42/36
f 54/58/51 53/57/50 39/42/36 40/43/37
f 55/59/52 54/58/51 40/43/37 41/44/38
f 56/60/53 55/59/52 41/44/38 42/45/39
f 57/61/54 56/60/53 42/45/39 43/46/40
f 58/62/55 57/61/54 43/46/40 44/47/41
f 59/63/56 58/62/55 44/47/41 45/48/42
f 60/64/57 59/63/56 45/48/42 46/49/43
f 48/51/45 60/64/57 46/49/43 34/36/31
f 61/65/58 62/66/59 48/51/45 47/50/44
f 63/67/60 61/68/58 47/53/44 49/52/46
f 64/69/61 63/67/60 49/52/46 50/54/47
f 65/70/62 64/69/61 50/54/47 51/55/48
f 66/71/63 65/70/62 51/55/48 52/56/49
f 67/72/64 66/71/63 52/56/49 53/57/50
f 68/73/65 67/72/64 53/57/50 54/58/51
f 69/74/66 68/73/65 54/58/51 55/59/52
f 70/75/67 69/74/66 55/59/52 56/60/53
f 71/76/68 70/75/67 56/60/53 57/61/54
f 72/77/69 71/76/68 57/61/54 58/62/55
f 73/78/70 72/77/69 58/62/55 59/63/56
f 74/79/71 73/78/70 59/63/56 60/64/57
f 62/66/59 74/79/71 60/64/57 48/51/45
f 75/80/72 76/81/72 77/82/72 78/83/72
f 79/84/1 80/85/1 81/86/1 82/87/1
f 83/88/72 84/89/72 85/90/72 86/91/72
f 87/92/1 88/93/1 80/85/1 79/84/1
f 89/94/72 90/95/72 84/89/72 83/88/72
f 1/1/1 4/4/1 88/93/1 87/92/1
f 91/96/72 92/97/72 90/95/72 89/94/72
f 3/3/1 2/2/1 93/98/1 94/99/1
f 77/82/72 76/81/72 92/97/72 91/96/72
f 75/80/72 78/83/72 95/100/72 96/101/72
f 94/99/1 93/98/1 97/102/1 98/103/1
f 99/104/1 100/105/1 8/8/1 7/7/1
f 101/106/1 99/104/1 7/7/1 32/34/1
f 102/107/1 101/106/1 32/34/1 30/32/1
f 103/108/1 102/107/1 30/32/1 28/30/1
f 104/109/1 103/108/1 28/30/1 26/28/1
f 105/110/1 104/109/1 26/28/1 24/26/1
f 106/111/1 105/110/1 24/26/1 22/24/1
f 107/112/1 106/111/1 22/24/1 20/22/1
f 108/113/1 107/112/1 20/22/1 18/20/1
f 109/114/1 108/113/1 18/20/1 16/18/1
f 110/115/1 109/114/1 16/18/1 14/16/1
f 111/116/1 110/115/1 14/16/1 12/14/1
f 112/117/1 111/116/1 12/14/1 10/12/1
f 100/118/1 112/117/1 10/12/1 8/11/1
f 113/119/72 114/120/72 62/66/72 61/65/72
f 115/121/72 113/122/72 61/68/72 63/67/72
f 116/123/72 115/121/72 63/67/72 64/69/72
f 117/124/72 116/123/72 64/69/72 65/70/72
f 118/125/72 117/124/72 65/70/72 66/71/72
f 119/126/72 118/125/72 66/71/72 67/72/72
f 120/127/72 119/126/72 67/72/72 68/73/72
f 121/128/72 120/127/72 68/73/72 69/74/72
f 122/129/72 121/128/72 69/74/72 70/75/72
f 123/130/72 122/129/72 70/75/72 71/76/72
f 124/131/72 123/130/72 71/76/72 72/77/72
f 125/132/72 124/131/72 72/77/72 73/78/72
f 126/133/72 125/132/72 73/78/72 74/79/72
f 114/120/72 126/133/72 74/79/72 62/66/72
f 1/134/73 87/135/74 100/105/75 99/104/76
f 2/136/77 1/134/73 99/104/76 101/106/78
f 93/137/79 2/136/77 101/106/78 102/107/80
f 97/138/81 93/137/79 102/107/80 103/108/82
f 98/139/83 97/138/81 103/108/82 104/109/84
f 94/140/85 98/139/83 104/109/84 105/110/86
f 3/141/87 94/140/85 105/110/86 106/111/88
f 4/142/89 3/141/87 106/111/88 107/112/90
f 88/143/91 4/142/89 107/112/90 108/113/92
f 80/144/93 88/143/91 108/113/92 109/114/94
f 81/145/95 80/144/93 109/114/94 110/115/96
f 82/146/97 81/145/95 110/115/96 111/116/98
f 79/147/99 82/146/97 111/116/98 112/117/100
f 87/148/74 79/147/99 112/117/100 100/118/75
f 90/149/75 92/150/76 114/120/73 113/119/74
f 84/151/100 90/152/75 113/122/74 115/121/99
f 85/153/98 84/151/100 115/121/99 116/123/97
f 86/154/96 85/153/98 116/123/97 117/124/95
f 83/155/94 86/154/96 117/124/95 118/125/93
f 89/156/92 83/155/94 118/125/93 119/126/91
f 91/157/90 89/156/92 119/126/91 120/127/89
f 77/158/88 91/157/90 120/127/89 121/128/87
f 78/159/86 77/158/88 121/128/87 122/129/85
f 95/160/84 78/159/86 122/129/85 123/130/83
f 96/161/82 95/160/84 123/130/83 124/131/81
f 75/162/80 96/161/82 124/131/81 125/132/79
f 76/163/78 75/162/80 125/132/79 126/133/77
f 92/150/76 76/163/78 126/133/77 114/120/73
