# Blender 4.2.1 LTS
# www.blender.org
o Cylinder
v 0.016436 1.186187 -0.642316
v 0.177189 1.186187 -0.626483
v 0.331763 1.186187 -0.579594
v 0.474220 1.186187 -0.503449
v 0.599085 1.186187 -0.400975
v 0.701559 1.186187 -0.276110
v 0.777703 1.186187 -0.133654
v 0.824593 1.186187 0.020921
v 0.840426 1.186187 0.181674
v 0.824593 1.186187 0.342426
v 0.777703 1.186187 0.497001
v 0.701559 1.186187 0.639458
v 0.599085 1.186187 0.764322
v 0.474220 1.186187 0.866796
v 0.331763 1.186187 0.942941
v 0.177189 1.186187 0.989830
v 0.016436 1.186187 1.005663
v -0.144316 1.186187 0.989830
v -0.298891 1.186187 0.942941
v -0.441348 1.186187 0.866796
v -0.566212 1.186187 0.764322
v -0.668686 1.186187 0.639458
v -0.744831 1.186187 0.497001
v -0.791721 1.186187 0.342426
v -0.807553 1.186187 0.181674
v -0.791721 1.186187 0.020921
v -0.744831 1.186187 -0.133654
v -0.668686 1.186187 -0.276110
v -0.566212 1.186187 -0.400975
v -0.441348 1.186187 -0.503449
v -0.298891 1.186187 -0.579594
v -0.144316 1.186187 -0.626483
v 0.016436 0.062868 -0.818326
v 0.211527 0.062868 -0.799112
v 0.399120 0.062868 -0.742206
v 0.572006 0.062868 -0.649796
v 0.723543 0.062868 -0.525433
v 0.847906 0.062868 -0.373897
v 0.940316 0.062868 -0.201010
v 0.997221 0.062868 -0.013417
v 1.016436 0.062868 0.181674
v 0.997221 0.062868 0.376764
v 0.940316 0.062868 0.564357
v 0.847906 0.062868 0.737244
v 0.723543 0.062868 0.888780
v 0.572006 0.062868 1.013143
v 0.399120 0.062868 1.105553
v 0.211527 0.062868 1.162459
v 0.016436 0.062868 1.181674
v -0.178654 0.062868 1.162459
v -0.366247 0.062868 1.105553
v -0.539134 0.062868 1.013143
v -0.690671 0.062868 0.888780
v -0.815033 0.062868 0.737244
v -0.907443 0.062868 0.564357
v -0.964349 0.062868 0.376764
v -0.983564 0.062868 0.181674
v -0.964349 0.062868 -0.013417
v -0.907443 0.062868 -0.201010
v -0.815033 0.062868 -0.373897
v -0.690671 0.062868 -0.525433
v -0.539134 0.062868 -0.649796
v -0.366247 0.062868 -0.742206
v -0.178654 0.062868 -0.799112
v 0.016436 -1.060450 -0.642316
v 0.177189 -1.060450 -0.626483
v 0.331763 -1.060450 -0.579594
v 0.474220 -1.060450 -0.503449
v 0.599085 -1.060450 -0.400975
v 0.701559 -1.060450 -0.276110
v 0.777703 -1.060450 -0.133654
v 0.824593 -1.060450 0.020921
v 0.840426 -1.060450 0.181674
v 0.824593 -1.060450 0.342426
v 0.777703 -1.060450 0.497001
v 0.701559 -1.060450 0.639458
v 0.599085 -1.060450 0.764322
v 0.474220 -1.060450 0.866796
v 0.331763 -1.060450 0.942941
v 0.177189 -1.060450 0.989830
v 0.016436 -1.060450 1.005663
v -0.144316 -1.060450 0.989830
v -0.298891 -1.060450 0.942941
v -0.441348 -1.060450 0.866796
v -0.566212 -1.060450 0.764322
v -0.668686 -1.060450 0.639458
v -0.744831 -1.060450 0.497001
v -0.791721 -1.060450 0.342426
v -0.807553 -1.060450 0.181674
v -0.791721 -1.060450 0.020921
v -0.744831 -1.060450 -0.133654
v -0.668686 -1.060450 -0.276110
v -0.566212 -1.060450 -0.400975
v -0.441348 -1.060450 -0.503449
v -0.298891 -1.060450 -0.579594
v -0.144316 -1.060450 -0.626483
vn 0.0968 0.1541 -0.9833
vn 0.2868 0.1541 -0.9455
vn 0.4658 0.1541 -0.8714
vn 0.6268 0.1541 -0.7638
vn 0.7638 0.1541 -0.6268
vn 0.8714 0.1541 -0.4658
vn 0.9455 0.1541 -0.2868
vn 0.9833 0.1541 -0.0968
vn 0.9833 0.1541 0.0968
vn 0.9455 0.1541 0.2868
vn 0.8714 0.1541 0.4658
vn 0.7638 0.1541 0.6268
vn 0.6268 0.1541 0.7638
vn 0.4658 0.1541 0.8714
vn 0.2868 0.1541 0.9455
vn 0.0968 0.1541 0.9833
vn -0.0968 0.1541 0.9833
vn -0.2868 0.1541 0.9455
vn -0.4658 0.1541 0.8714
vn -0.6268 0.1541 0.7638
vn -0.7638 0.1541 0.6268
vn -0.8714 0.1541 0.4658
vn -0.9455 0.1541 0.2868
vn -0.9833 0.1541 0.0968
vn -0.9833 0.1541 -0.0968
vn -0.9455 0.1541 -0.2868
vn -0.8714 0.1541 -0.4658
vn -0.7638 0.1541 -0.6268
vn -0.6268 0.1541 -0.7638
vn -0.4658 0.1541 -0.8714
vn -0.2868 0.1541 -0.9455
vn -0.0968 0.1541 -0.9833
vn -0.0000 1.0000 -0.0000
vn -0.0000 -1.0000 -0.0000
vn 0.0968 -0.1541 -0.9833
vn 0.2868 -0.1541 -0.9455
vn 0.4658 -0.1541 -0.8714
vn 0.6268 -0.1541 -0.7638
vn 0.7638 -0.1541 -0.6268
vn 0.8714 -0.1541 -0.4658
vn 0.9455 -0.1541 -0.2868
vn 0.9833 -0.1541 -0.0968
vn 0.9833 -0.1541 0.0968
vn 0.9455 -0.1541 0.2868
vn 0.8714 -0.1541 0.4658
vn 0.7638 -0.1541 0.6268
vn 0.6268 -0.1541 0.7638
vn 0.4658 -0.1541 0.8714
vn 0.2868 -0.1541 0.9455
vn 0.0968 -0.1541 0.9833
vn -0.0968 -0.1541 0.9833
vn -0.2868 -0.1541 0.9455
vn -0.4658 -0.1541 0.8714
vn -0.6268 -0.1541 0.7638
vn -0.7638 -0.1541 0.6268
vn -0.8714 -0.1541 0.4658
vn -0.9455 -0.1541 0.2868
vn -0.9833 -0.1541 0.0968
vn -0.9833 -0.1541 -0.0968
vn -0.9455 -0.1541 -0.2868
vn -0.8714 -0.1541 -0.4658
vn -0.7638 -0.1541 -0.6268
vn -0.6268 -0.1541 -0.7638
vn -0.4658 -0.1541 -0.8714
vn -0.2868 -0.1541 -0.9455
vn -0.0968 -0.1541 -0.9833
vt 0.197244 0.966400
vt 0.393661 0.956171
vt 0.395434 0.984491
vt 0.196301 1.000000
vt 0.211547 0.000000
vt 0.418424 0.032260
vt 0.414243 0.062041
vt 0.210510 0.035504
vt 0.410745 0.091939
vt 0.209576 0.069953
vt 0.407799 0.121905
vt 0.208757 0.103562
vt 0.405302 0.151907
vt 0.208039 0.136499
vt 0.403174 0.181917
vt 0.207416 0.168896
vt 0.401353 0.211916
vt 0.206877 0.200859
vt 0.399695 0.241916
vt 0.205940 0.232391
vt 0.398337 0.271984
vt 0.205537 0.263629
vt 0.397152 0.302017
vt 0.205180 0.294626
vt 0.396114 0.332013
vt 0.204861 0.325421
vt 0.395203 0.361972
vt 0.204577 0.356046
vt 0.394402 0.391896
vt 0.204321 0.386526
vt 0.393696 0.421788
vt 0.204087 0.416883
vt 0.393073 0.451650
vt 0.203870 0.447137
vt 0.392525 0.481486
vt 0.203664 0.477305
vt 0.392042 0.511300
vt 0.203462 0.507402
vt 0.391617 0.541095
vt 0.203260 0.537443
vt 0.391247 0.570875
vt 0.203052 0.567444
vt 0.390927 0.600643
vt 0.202830 0.597421
vt 0.390655 0.630403
vt 0.202589 0.627391
vt 0.390431 0.660156
vt 0.202324 0.657373
vt 0.390259 0.689906
vt 0.202026 0.687389
vt 0.390144 0.719652
vt 0.201691 0.717466
vt 0.390095 0.749395
vt 0.201311 0.747636
vt 0.390127 0.779131
vt 0.200880 0.777939
vt 0.390260 0.808856
vt 0.200390 0.808423
vt 0.390523 0.838564
vt 0.199834 0.839149
vt 0.390955 0.868241
vt 0.199205 0.870195
vt 0.391607 0.897873
vt 0.198492 0.901660
vt 0.392549 0.927435
vt 0.197688 0.933670
vt 0.623994 0.015876
vt 0.692053 0.098806
vt 0.681537 0.205570
vt 0.449566 0.507406
vt 0.418424 0.404744
vt 0.697413 0.432223
vt 0.000000 0.973262
vt 0.003375 0.945321
vt 0.002395 0.050374
vt 0.000000 0.019959
vt 0.004481 0.081526
vt 0.006172 0.112641
vt 0.007558 0.143693
vt 0.008708 0.174664
vt 0.009674 0.205542
vt 0.010493 0.236331
vt 0.011216 0.267016
vt 0.011862 0.297591
vt 0.012444 0.328056
vt 0.012969 0.358411
vt 0.013444 0.388658
vt 0.013870 0.418798
vt 0.014248 0.448835
vt 0.014575 0.478771
vt 0.014848 0.508610
vt 0.015062 0.538355
vt 0.015210 0.568011
vt 0.015284 0.597579
vt 0.015275 0.627062
vt 0.015169 0.656464
vt 0.014954 0.685784
vt 0.014612 0.715022
vt 0.014121 0.744177
vt 0.013457 0.773246
vt 0.012586 0.802221
vt 0.011469 0.831093
vt 0.010056 0.859848
vt 0.008283 0.888466
vt 0.006071 0.916919
vt 0.666271 0.228417
vt 0.598608 0.273628
vt 0.646841 0.247847
vt 0.623994 0.263113
vt 0.571658 0.278989
vt 0.491843 0.263113
vt 0.544180 0.278989
vt 0.517230 0.273628
vt 0.468996 0.247847
vt 0.449566 0.228417
vt 0.434300 0.205570
vt 0.423785 0.180183
vt 0.418424 0.153233
vt 0.418424 0.125755
vt 0.423785 0.098805
vt 0.434301 0.073419
vt 0.449567 0.050572
vt 0.517230 0.005361
vt 0.468996 0.031142
vt 0.491844 0.015876
vt 0.544180 0.000000
vt 0.571658 -0.000000
vt 0.598608 0.005361
vt 0.646842 0.031142
vt 0.666271 0.050572
vt 0.681537 0.073419
vt 0.697413 0.125756
vt 0.697413 0.153234
vt 0.692053 0.180184
vt 0.423785 0.377794
vt 0.468996 0.310131
vt 0.434300 0.352408
vt 0.449566 0.329561
vt 0.491843 0.294865
vt 0.517230 0.284350
vt 0.544180 0.278989
vt 0.571658 0.278989
vt 0.598608 0.284350
vt 0.623994 0.294865
vt 0.646841 0.310131
vt 0.666271 0.329561
vt 0.681537 0.352408
vt 0.692053 0.377795
vt 0.697413 0.404745
vt 0.692053 0.459173
vt 0.681537 0.484559
vt 0.666271 0.507406
vt 0.646841 0.526836
vt 0.623994 0.542102
vt 0.598608 0.552617
vt 0.571658 0.557978
vt 0.544180 0.557978
vt 0.517230 0.552617
vt 0.491843 0.542102
vt 0.468996 0.526836
vt 0.434300 0.484559
vt 0.423785 0.459173
vt 0.418424 0.432222
s 0
f 33/1/1 1/2/1 2/3/1 34/4/1
f 34/5/2 2/6/2 3/7/2 35/8/2
f 35/8/3 3/7/3 4/9/3 36/10/3
f 36/10/4 4/9/4 5/11/4 37/12/4
f 37/12/5 5/11/5 6/13/5 38/14/5
f 38/14/6 6/13/6 7/15/6 39/16/6
f 39/16/7 7/15/7 8/17/7 40/18/7
f 40/18/8 8/17/8 9/19/8 41/20/8
f 41/20/9 9/19/9 10/21/9 42/22/9
f 42/22/10 10/21/10 11/23/10 43/24/10
f 43/24/11 11/23/11 12/25/11 44/26/11
f 44/26/12 12/25/12 13/27/12 45/28/12
f 45/28/13 13/27/13 14/29/13 46/30/13
f 46/30/14 14/29/14 15/31/14 47/32/14
f 47/32/15 15/31/15 16/33/15 48/34/15
f 48/34/16 16/33/16 17/35/16 49/36/16
f 49/36/17 17/35/17 18/37/17 50/38/17
f 50/38/18 18/37/18 19/39/18 51/40/18
f 51/40/19 19/39/19 20/41/19 52/42/19
f 52/42/20 20/41/20 21/43/20 53/44/20
f 53/44/21 21/43/21 22/45/21 54/46/21
f 54/46/22 22/45/22 23/47/22 55/48/22
f 55/48/23 23/47/23 24/49/23 56/50/23
f 56/50/24 24/49/24 25/51/24 57/52/24
f 57/52/25 25/51/25 26/53/25 58/54/25
f 58/54/26 26/53/26 27/55/26 59/56/26
f 59/56/27 27/55/27 28/57/27 60/58/27
f 60/58/28 28/57/28 29/59/28 61/60/28
f 61/60/29 29/59/29 30/61/29 62/62/29
f 62/62/30 30/61/30 31/63/30 63/64/30
f 63/64/31 31/63/31 32/65/31 64/66/31
f 64/66/32 32/65/32 1/2/32 33/1/32
f 11/67/33 7/68/33 3/69/33
f 93/70/34 65/71/34 81/72/34
f 33/1/35 34/4/35 66/73/35 65/74/35
f 34/5/36 35/8/36 67/75/36 66/76/36
f 35/8/37 36/10/37 68/77/37 67/75/37
f 36/10/38 37/12/38 69/78/38 68/77/38
f 37/12/39 38/14/39 70/79/39 69/78/39
f 38/14/40 39/16/40 71/80/40 70/79/40
f 39/16/41 40/18/41 72/81/41 71/80/41
f 40/18/42 41/20/42 73/82/42 72/81/42
f 41/20/43 42/22/43 74/83/43 73/82/43
f 42/22/44 43/24/44 75/84/44 74/83/44
f 43/24/45 44/26/45 76/85/45 75/84/45
f 44/26/46 45/28/46 77/86/46 76/85/46
f 45/28/47 46/30/47 78/87/47 77/86/47
f 46/30/48 47/32/48 79/88/48 78/87/48
f 47/32/49 48/34/49 80/89/49 79/88/49
f 48/34/50 49/36/50 81/90/50 80/89/50
f 49/36/51 50/38/51 82/91/51 81/90/51
f 50/38/52 51/40/52 83/92/52 82/91/52
f 51/40/53 52/42/53 84/93/53 83/92/53
f 52/42/54 53/44/54 85/94/54 84/93/54
f 53/44/55 54/46/55 86/95/55 85/94/55
f 54/46/56 55/48/56 87/96/56 86/95/56
f 55/48/57 56/50/57 88/97/57 87/96/57
f 56/50/58 57/52/58 89/98/58 88/97/58
f 57/52/59 58/54/59 90/99/59 89/98/59
f 58/54/60 59/56/60 91/100/60 90/99/60
f 59/56/61 60/58/61 92/101/61 91/100/61
f 60/58/62 61/60/62 93/102/62 92/101/62
f 61/60/63 62/62/63 94/103/63 93/102/63
f 62/62/64 63/64/64 95/104/64 94/103/64
f 63/64/65 64/66/65 96/105/65 95/104/65
f 64/66/66 33/1/66 65/74/66 96/105/66
f 3/69/33 2/106/33 31/107/33
f 2/106/33 1/108/33 31/107/33
f 1/108/33 32/109/33 31/107/33
f 31/107/33 30/110/33 27/111/33
f 30/110/33 29/112/33 27/111/33
f 29/112/33 28/113/33 27/111/33
f 27/111/33 26/114/33 25/115/33
f 25/115/33 24/116/33 27/111/33
f 24/116/33 23/117/33 27/111/33
f 23/117/33 22/118/33 21/119/33
f 21/119/33 20/120/33 23/117/33
f 20/120/33 19/121/33 23/117/33
f 19/121/33 18/122/33 15/123/33
f 18/122/33 17/124/33 15/123/33
f 17/124/33 16/125/33 15/123/33
f 15/123/33 14/126/33 13/127/33
f 13/127/33 12/128/33 15/123/33
f 12/128/33 11/67/33 15/123/33
f 11/67/33 10/129/33 7/68/33
f 10/129/33 9/130/33 7/68/33
f 9/130/33 8/131/33 7/68/33
f 7/68/33 6/132/33 5/133/33
f 5/133/33 4/134/33 7/68/33
f 4/134/33 3/69/33 7/68/33
f 3/69/33 31/107/33 27/111/33
f 27/111/33 23/117/33 3/69/33
f 23/117/33 19/121/33 3/69/33
f 19/121/33 15/123/33 3/69/33
f 15/123/33 11/67/33 3/69/33
f 65/71/34 66/135/34 69/136/34
f 66/135/34 67/137/34 69/136/34
f 67/137/34 68/138/34 69/136/34
f 69/136/34 70/139/34 71/140/34
f 71/140/34 72/141/34 69/136/34
f 72/141/34 73/142/34 69/136/34
f 73/142/34 74/143/34 75/144/34
f 75/144/34 76/145/34 73/142/34
f 76/145/34 77/146/34 73/142/34
f 77/146/34 78/147/34 79/148/34
f 79/148/34 80/149/34 77/146/34
f 80/149/34 81/72/34 77/146/34
f 81/72/34 82/150/34 83/151/34
f 83/151/34 84/152/34 81/72/34
f 84/152/34 85/153/34 81/72/34
f 85/153/34 86/154/34 87/155/34
f 87/155/34 88/156/34 85/153/34
f 88/156/34 89/157/34 85/153/34
f 89/157/34 90/158/34 93/70/34
f 90/158/34 91/159/34 93/70/34
f 91/159/34 92/160/34 93/70/34
f 93/70/34 94/161/34 95/162/34
f 95/162/34 96/163/34 93/70/34
f 96/163/34 65/71/34 93/70/34
f 65/71/34 69/136/34 73/142/34
f 73/142/34 77/146/34 65/71/34
f 77/146/34 81/72/34 65/71/34
f 81/72/34 85/153/34 89/157/34
f 89/157/34 93/70/34 81/72/34
