# Blender 4.2.1 LTS
# www.blender.org
o Cylinder
v 0.016436 1.186187 -0.642316
v 0.177189 1.186187 -0.626483
v 0.331763 1.186187 -0.579594
v 0.474220 1.186187 -0.503449
v 0.599085 1.186187 -0.400975
v 0.701559 1.186187 -0.276110
v 0.777703 1.186187 -0.133654
v 0.824593 1.186187 0.020921
v 0.840426 1.186187 0.181674
v 0.824593 1.186187 0.342426
v 0.777703 1.186187 0.497001
v 0.701559 1.186187 0.639458
v 0.599085 1.186187 0.764322
v 0.474220 1.186187 0.866796
v 0.331763 1.186187 0.942941
v 0.177189 1.186187 0.989830
v 0.016436 1.186187 1.005663
v -0.144316 1.186187 0.989830
v -0.298891 1.186187 0.942941
v -0.441348 1.186187 0.866796
v -0.566212 1.186187 0.764322
v -0.668686 1.186187 0.639458
v -0.744831 1.186187 0.497001
v -0.791721 1.186187 0.342426
v -0.807553 1.186187 0.181674
v -0.791721 1.186187 0.020921
v -0.744831 1.186187 -0.133654
v -0.668686 1.186187 -0.276110
v -0.566212 1.186187 -0.400975
v -0.441348 1.186187 -0.503449
v -0.298891 1.186187 -0.579594
v -0.144316 1.186187 -0.626483
v 0.016436 0.062868 -0.818326
v 0.211527 0.062868 -0.799112
v 0.399120 0.062868 -0.742206
v 0.572006 0.062868 -0.649796
v 0.723543 0.062868 -0.525433
v 0.847906 0.062868 -0.373897
v 0.940316 0.062868 -0.201010
v 0.997221 0.062868 -0.013417
v 1.016436 0.062868 0.181674
v 0.997221 0.062868 0.376764
v 0.940316 0.062868 0.564357
v 0.847906 0.062868 0.737244
v 0.723543 0.062868 0.888780
v 0.572006 0.062868 1.013143
v 0.399120 0.062868 1.105553
v 0.211527 0.062868 1.162459
v 0.016436 0.062868 1.181674
v -0.178654 0.062868 1.162459
v -0.366247 0.062868 1.105553
v -0.539134 0.062868 1.013143
v -0.690671 0.062868 0.888780
v -0.815033 0.062868 0.737244
v -0.907443 0.062868 0.564357
v -0.964349 0.062868 0.376764
v -0.983564 0.062868 0.181674
v -0.964349 0.062868 -0.013417
v -0.907443 0.062868 -0.201010
v -0.815033 0.062868 -0.373897
v -0.690671 0.062868 -0.525433
v -0.539134 0.062868 -0.649796
v -0.366247 0.062868 -0.742206
v -0.178654 0.062868 -0.799112
v 0.016436 1.186186 0.181674
v 0.016436 -1.060450 -0.642316
v 0.177189 -1.060450 -0.626483
v 0.331763 -1.060450 -0.579594
v 0.474220 -1.060450 -0.503449
v 0.599085 -1.060450 -0.400975
v 0.701559 -1.060450 -0.276110
v 0.777703 -1.060450 -0.133654
v 0.824593 -1.060450 0.020921
v 0.840426 -1.060450 0.181674
v 0.824593 -1.060450 0.342426
v 0.777703 -1.060450 0.497001
v 0.701559 -1.060450 0.639458
v 0.599085 -1.060450 0.764322
v 0.474220 -1.060450 0.866796
v 0.331763 -1.060450 0.942941
v 0.177189 -1.060450 0.989830
v 0.016436 -1.060450 1.005663
v -0.144316 -1.060450 0.989830
v -0.298891 -1.060450 0.942941
v -0.441348 -1.060450 0.866796
v -0.566212 -1.060450 0.764322
v -0.668686 -1.060450 0.639458
v -0.744831 -1.060450 0.497001
v -0.791721 -1.060450 0.342426
v -0.807553 -1.060450 0.181674
v -0.791721 -1.060450 0.020921
v -0.744831 -1.060450 -0.133654
v -0.668686 -1.060450 -0.276110
v -0.566212 -1.060450 -0.400975
v -0.441348 -1.060450 -0.503449
v -0.298891 -1.060450 -0.579594
v -0.144316 -1.060450 -0.626483
v 0.016436 -1.060450 0.181674
vn 0.0968 0.1541 -0.9833
vn 0.2868 0.1541 -0.9455
vn 0.4658 0.1541 -0.8714
vn 0.6268 0.1541 -0.7638
vn 0.7638 0.1541 -0.6268
vn 0.8714 0.1541 -0.4658
vn 0.9455 0.1541 -0.2868
vn 0.9833 0.1541 -0.0968
vn 0.9833 0.1541 0.0968
vn 0.9455 0.1541 0.2868
vn 0.8714 0.1541 0.4658
vn 0.7638 0.1541 0.6268
vn 0.6268 0.1541 0.7638
vn 0.4658 0.1541 0.8714
vn 0.2868 0.1541 0.9455
vn 0.0968 0.1541 0.9833
vn -0.0968 0.1541 0.9833
vn -0.2868 0.1541 0.9455
vn -0.4658 0.1541 0.8714
vn -0.6268 0.1541 0.7638
vn -0.7638 0.1541 0.6268
vn -0.8714 0.1541 0.4658
vn -0.9455 0.1541 0.2868
vn -0.9833 0.1541 0.0968
vn -0.9833 0.1541 -0.0968
vn -0.9455 0.1541 -0.2868
vn -0.8714 0.1541 -0.4658
vn -0.7638 0.1541 -0.6268
vn -0.6268 0.1541 -0.7638
vn -0.4658 0.1541 -0.8714
vn -0.2868 0.1541 -0.9455
vn -0.0968 0.1541 -0.9833
vn -0.0000 1.0000 -0.0000
vn 0.0968 -0.1541 -0.9833
vn 0.2868 -0.1541 -0.9455
vn 0.4658 -0.1541 -0.8714
vn 0.6268 -0.1541 -0.7638
vn 0.7638 -0.1541 -0.6268
vn 0.8714 -0.1541 -0.4658
vn 0.9455 -0.1541 -0.2868
vn 0.9833 -0.1541 -0.0968
vn 0.9833 -0.1541 0.0968
vn 0.9455 -0.1541 0.2868
vn 0.8714 -0.1541 0.4658
vn 0.7638 -0.1541 0.6268
vn 0.6268 -0.1541 0.7638
vn 0.4658 -0.1541 0.8714
vn 0.2868 -0.1541 0.9455
vn 0.0968 -0.1541 0.9833
vn -0.0968 -0.1541 0.9833
vn -0.2868 -0.1541 0.9455
vn -0.4658 -0.1541 0.8714
vn -0.6268 -0.1541 0.7638
vn -0.7638 -0.1541 0.6268
vn -0.8714 -0.1541 0.4658
vn -0.9455 -0.1541 0.2868
vn -0.9833 -0.1541 0.0968
vn -0.9833 -0.1541 -0.0968
vn -0.9455 -0.1541 -0.2868
vn -0.8714 -0.1541 -0.4658
vn -0.7638 -0.1541 -0.6268
vn -0.6268 -0.1541 -0.7638
vn -0.4658 -0.1541 -0.8714
vn -0.2868 -0.1541 -0.9455
vn -0.0968 -0.1541 -0.9833
vn -0.0000 -1.0000 -0.0000
vt 0.045087 0.281924
vt 0.059263 0.459403
vt 0.033677 0.461740
vt 0.014496 0.281906
vt 0.988016 0.284291
vt 0.957932 0.507014
vt 0.925869 0.503192
vt 0.950360 0.284210
vt 0.893665 0.500101
vt 0.913946 0.284084
vt 0.861342 0.497587
vt 0.878534 0.283919
vt 0.828766 0.493777
vt 0.843946 0.283706
vt 0.796573 0.490256
vt 0.810082 0.283473
vt 0.764767 0.486986
vt 0.776852 0.283259
vt 0.733335 0.483832
vt 0.744290 0.282605
vt 0.702167 0.480976
vt 0.712252 0.282487
vt 0.671370 0.478294
vt 0.680704 0.282390
vt 0.640932 0.475775
vt 0.649606 0.282309
vt 0.610841 0.473410
vt 0.618924 0.282240
vt 0.581080 0.471191
vt 0.588625 0.282182
vt 0.551636 0.469113
vt 0.558680 0.282131
vt 0.522493 0.467172
vt 0.529062 0.282086
vt 0.493634 0.465365
vt 0.499745 0.282047
vt 0.465044 0.463690
vt 0.470702 0.282011
vt 0.436707 0.462148
vt 0.441909 0.281978
vt 0.408606 0.460738
vt 0.413339 0.281947
vt 0.380728 0.459465
vt 0.384967 0.281919
vt 0.353056 0.458330
vt 0.356764 0.281891
vt 0.325576 0.457339
vt 0.328701 0.281865
vt 0.298275 0.456501
vt 0.300745 0.281839
vt 0.271140 0.455826
vt 0.272858 0.281813
vt 0.244161 0.455329
vt 0.245000 0.281786
vt 0.217328 0.455027
vt 0.217120 0.281758
vt 0.190634 0.454947
vt 0.189161 0.281727
vt 0.164075 0.455120
vt 0.161053 0.281694
vt 0.137652 0.455589
vt 0.132711 0.281657
vt 0.111368 0.456409
vt 0.104028 0.281614
vt 0.085236 0.457650
vt 0.074875 0.281563
vt 0.759318 0.532768
vt 0.802775 0.541412
vt 0.737164 0.757706
vt 0.512226 0.779860
vt 0.512226 0.735551
vt 0.802776 0.973999
vt 0.759318 0.982643
vt 0.911884 0.614316
vt 0.936500 0.651158
vt 0.562443 0.614316
vt 0.593774 0.582985
vt 0.630616 0.957042
vt 0.593775 0.932426
vt 0.962101 0.779860
vt 0.953457 0.823317
vt 0.936501 0.864253
vt 0.715009 0.532768
vt 0.520871 0.823317
vt 0.843712 0.957042
vt 0.880553 0.582985
vt 0.537827 0.651158
vt 0.671552 0.973999
vt 0.962101 0.735551
vt 0.671552 0.541412
vt 0.537827 0.864253
vt 0.880553 0.932426
vt 0.843711 0.558369
vt 0.520870 0.692094
vt 0.715009 0.982643
vt 0.953457 0.692094
vt 0.630616 0.558369
vt 0.562443 0.901095
vt 0.911884 0.901095
vt 0.033725 0.101736
vt 0.059359 0.104079
vt 0.926411 0.066386
vt 0.958315 0.062604
vt 0.894391 0.069450
vt 0.862289 0.071955
vt 0.830124 0.074032
vt 0.797910 0.075791
vt 0.765651 0.077327
vt 0.733953 0.080358
vt 0.702670 0.083190
vt 0.671782 0.085840
vt 0.641272 0.088323
vt 0.611123 0.090650
vt 0.581316 0.092828
vt 0.551835 0.094864
vt 0.522661 0.096763
vt 0.493777 0.098528
vt 0.465166 0.100160
vt 0.436811 0.101661
vt 0.408697 0.103030
vt 0.380806 0.104265
vt 0.353125 0.105362
vt 0.325638 0.106316
vt 0.298332 0.107119
vt 0.271195 0.107760
vt 0.244216 0.108227
vt 0.217386 0.108499
vt 0.190700 0.108553
vt 0.164154 0.108356
vt 0.137750 0.107867
vt 0.111494 0.107032
vt 0.085401 0.105779
vt 0.471847 0.718867
vt 0.257999 0.739929
vt 0.463629 0.677552
vt 0.236937 0.953777
vt 0.279061 0.953777
vt 0.052369 0.677552
vt 0.044151 0.718867
vt 0.394319 0.573822
vt 0.359294 0.550419
vt 0.394319 0.906035
vt 0.424106 0.876249
vt 0.068490 0.841224
vt 0.091893 0.876249
vt 0.236937 0.526081
vt 0.195622 0.534299
vt 0.156704 0.550419
vt 0.471847 0.760991
vt 0.195622 0.945559
vt 0.068490 0.638634
vt 0.424106 0.603609
vt 0.359294 0.929439
vt 0.052369 0.802306
vt 0.279062 0.526081
vt 0.463629 0.802306
vt 0.156704 0.929439
vt 0.091893 0.603609
vt 0.447509 0.638634
vt 0.320376 0.945559
vt 0.044151 0.760991
vt 0.320376 0.534299
vt 0.447509 0.841224
vt 0.121679 0.906035
vt 0.121679 0.573822
s 0
f 33/1/1 1/2/1 2/3/1 34/4/1
f 34/5/2 2/6/2 3/7/2 35/8/2
f 35/8/3 3/7/3 4/9/3 36/10/3
f 36/10/4 4/9/4 5/11/4 37/12/4
f 37/12/5 5/11/5 6/13/5 38/14/5
f 38/14/6 6/13/6 7/15/6 39/16/6
f 39/16/7 7/15/7 8/17/7 40/18/7
f 40/18/8 8/17/8 9/19/8 41/20/8
f 41/20/9 9/19/9 10/21/9 42/22/9
f 42/22/10 10/21/10 11/23/10 43/24/10
f 43/24/11 11/23/11 12/25/11 44/26/11
f 44/26/12 12/25/12 13/27/12 45/28/12
f 45/28/13 13/27/13 14/29/13 46/30/13
f 46/30/14 14/29/14 15/31/14 47/32/14
f 47/32/15 15/31/15 16/33/15 48/34/15
f 48/34/16 16/33/16 17/35/16 49/36/16
f 49/36/17 17/35/17 18/37/17 50/38/17
f 50/38/18 18/37/18 19/39/18 51/40/18
f 51/40/19 19/39/19 20/41/19 52/42/19
f 52/42/20 20/41/20 21/43/20 53/44/20
f 53/44/21 21/43/21 22/45/21 54/46/21
f 54/46/22 22/45/22 23/47/22 55/48/22
f 55/48/23 23/47/23 24/49/23 56/50/23
f 56/50/24 24/49/24 25/51/24 57/52/24
f 57/52/25 25/51/25 26/53/25 58/54/25
f 58/54/26 26/53/26 27/55/26 59/56/26
f 59/56/27 27/55/27 28/57/27 60/58/27
f 60/58/28 28/57/28 29/59/28 61/60/28
f 61/60/29 29/59/29 30/61/29 62/62/29
f 62/62/30 30/61/30 31/63/30 63/64/30
f 63/64/31 31/63/31 32/65/31 64/66/31
f 64/66/32 32/65/32 1/2/32 33/1/32
f 10/67/33 9/68/33 65/69/33
f 19/70/33 18/71/33 65/69/33
f 28/72/33 27/73/33 65/69/33
f 6/74/33 5/75/33 65/69/33
f 15/76/33 14/77/33 65/69/33
f 24/78/33 23/79/33 65/69/33
f 2/80/33 1/81/33 65/69/33
f 1/81/33 32/82/33 65/69/33
f 11/83/33 10/67/33 65/69/33
f 20/84/33 19/70/33 65/69/33
f 29/85/33 28/72/33 65/69/33
f 7/86/33 6/74/33 65/69/33
f 16/87/33 15/76/33 65/69/33
f 25/88/33 24/78/33 65/69/33
f 3/89/33 2/80/33 65/69/33
f 12/90/33 11/83/33 65/69/33
f 21/91/33 20/84/33 65/69/33
f 30/92/33 29/85/33 65/69/33
f 8/93/33 7/86/33 65/69/33
f 17/94/33 16/87/33 65/69/33
f 26/95/33 25/88/33 65/69/33
f 4/96/33 3/89/33 65/69/33
f 13/97/33 12/90/33 65/69/33
f 22/98/33 21/91/33 65/69/33
f 31/99/33 30/92/33 65/69/33
f 9/68/33 8/93/33 65/69/33
f 18/71/33 17/94/33 65/69/33
f 27/73/33 26/95/33 65/69/33
f 5/75/33 4/96/33 65/69/33
f 14/77/33 13/97/33 65/69/33
f 23/79/33 22/98/33 65/69/33
f 32/82/33 31/99/33 65/69/33
f 33/1/34 34/4/34 67/100/34 66/101/34
f 34/5/35 35/8/35 68/102/35 67/103/35
f 35/8/36 36/10/36 69/104/36 68/102/36
f 36/10/37 37/12/37 70/105/37 69/104/37
f 37/12/38 38/14/38 71/106/38 70/105/38
f 38/14/39 39/16/39 72/107/39 71/106/39
f 39/16/40 40/18/40 73/108/40 72/107/40
f 40/18/41 41/20/41 74/109/41 73/108/41
f 41/20/42 42/22/42 75/110/42 74/109/42
f 42/22/43 43/24/43 76/111/43 75/110/43
f 43/24/44 44/26/44 77/112/44 76/111/44
f 44/26/45 45/28/45 78/113/45 77/112/45
f 45/28/46 46/30/46 79/114/46 78/113/46
f 46/30/47 47/32/47 80/115/47 79/114/47
f 47/32/48 48/34/48 81/116/48 80/115/48
f 48/34/49 49/36/49 82/117/49 81/116/49
f 49/36/50 50/38/50 83/118/50 82/117/50
f 50/38/51 51/40/51 84/119/51 83/118/51
f 51/40/52 52/42/52 85/120/52 84/119/52
f 52/42/53 53/44/53 86/121/53 85/120/53
f 53/44/54 54/46/54 87/122/54 86/121/54
f 54/46/55 55/48/55 88/123/55 87/122/55
f 55/48/56 56/50/56 89/124/56 88/123/56
f 56/50/57 57/52/57 90/125/57 89/124/57
f 57/52/58 58/54/58 91/126/58 90/125/58
f 58/54/59 59/56/59 92/127/59 91/126/59
f 59/56/60 60/58/60 93/128/60 92/127/60
f 60/58/61 61/60/61 94/129/61 93/128/61
f 61/60/62 62/62/62 95/130/62 94/129/62
f 62/62/63 63/64/63 96/131/63 95/130/63
f 63/64/64 64/66/64 97/132/64 96/131/64
f 64/66/65 33/1/65 66/101/65 97/132/65
f 75/133/66 98/134/66 74/135/66
f 84/136/66 98/134/66 83/137/66
f 93/138/66 98/134/66 92/139/66
f 71/140/66 98/134/66 70/141/66
f 80/142/66 98/134/66 79/143/66
f 89/144/66 98/134/66 88/145/66
f 67/146/66 98/134/66 66/147/66
f 66/147/66 98/134/66 97/148/66
f 76/149/66 98/134/66 75/133/66
f 85/150/66 98/134/66 84/136/66
f 94/151/66 98/134/66 93/138/66
f 72/152/66 98/134/66 71/140/66
f 81/153/66 98/134/66 80/142/66
f 90/154/66 98/134/66 89/144/66
f 68/155/66 98/134/66 67/146/66
f 77/156/66 98/134/66 76/149/66
f 86/157/66 98/134/66 85/150/66
f 95/158/66 98/134/66 94/151/66
f 73/159/66 98/134/66 72/152/66
f 82/160/66 98/134/66 81/153/66
f 91/161/66 98/134/66 90/154/66
f 69/162/66 98/134/66 68/155/66
f 78/163/66 98/134/66 77/156/66
f 87/164/66 98/134/66 86/157/66
f 96/165/66 98/134/66 95/158/66
f 74/135/66 98/134/66 73/159/66
f 83/137/66 98/134/66 82/160/66
f 92/139/66 98/134/66 91/161/66
f 70/141/66 98/134/66 69/162/66
f 79/143/66 98/134/66 78/163/66
f 88/145/66 98/134/66 87/164/66
f 97/148/66 98/134/66 96/165/66
