# Blender 4.2.1 LTS
# www.blender.org
mtllib blend2.mtl
o Sphere
v 0.000000 -0.500000 -1.500000
v 1.000000 1.000000 -1.000000
v 1.500000 0.500000 -1.500000
v 2.000000 0.000000 -2.000000
v 1.500000 -0.500000 -1.500000
v 1.000000 -1.000000 -1.000000
v 1.000000 1.000000 0.000000
v 1.500000 0.500000 0.000000
v 2.000000 0.000000 0.000000
v 1.500000 -0.500000 0.000000
v 1.000000 -1.000000 0.000000
v 1.000000 1.000000 0.000000
v 1.500000 0.500000 0.000000
v 2.000000 0.000000 0.000000
v 1.500000 -0.500000 0.000000
v 1.000000 -1.000000 0.000000
v 1.000000 1.000000 0.000000
v 1.500000 0.500000 0.000000
v 2.000000 0.000000 0.000000
v 1.500000 -0.500000 0.000000
v 1.000000 -1.000000 0.000000
v 1.000000 1.000000 0.000000
v 1.500000 0.500000 0.000000
v 2.000000 0.000000 0.000000
v 1.500000 -0.500000 0.000000
v 1.000000 -1.000000 0.000000
v 1.000000 1.000000 1.000000
v 1.500000 0.500000 1.500000
v 2.000000 0.000000 2.000000
v 1.500000 -0.500000 1.500000
v 1.000000 -1.000000 1.000000
v 0.000000 1.000000 1.000000
v 0.000000 0.500000 1.500000
v 0.000000 0.000000 2.000000
v 0.000000 -0.500000 1.500000
v 0.000000 -1.000000 1.000000
v 0.000000 1.000000 1.000000
v -0.000000 0.500000 1.500000
v -0.000000 0.000000 2.000000
v -0.000000 -0.500000 1.500000
v -0.000000 -1.000000 1.000000
v 0.000000 1.000000 1.000000
v 0.000000 0.500000 1.500000
v 0.000000 0.000000 2.000000
v 0.000000 -0.500000 1.500000
v 0.000000 -1.000000 1.000000
v -1.000000 1.000000 1.000000
v -1.500000 0.500000 1.500000
v -2.000000 0.000000 2.000000
v -1.500000 -0.500000 1.500000
v -1.000000 -1.000000 1.000000
v 0.000000 2.000000 0.000000
v -1.000000 1.000000 0.000000
v -1.500000 0.500000 -0.000000
v -2.000000 0.000000 0.000000
v -1.500000 -0.500000 0.000000
v -1.000000 -1.000000 0.000000
v -1.000000 1.000000 -0.000000
v -1.500000 0.500000 0.000000
v -2.000000 0.000000 -0.000001
v -1.500000 -0.500000 -0.000000
v -1.000000 -1.000000 -0.000000
v -1.000000 1.000000 -0.000000
v -1.500000 0.500000 0.000000
v -2.000000 0.000000 0.000000
v -1.500000 -0.500000 0.000000
v -1.000000 -1.000000 0.000000
v -1.000000 1.000000 -0.000000
v -1.500000 0.500000 0.000000
v -2.000000 0.000000 0.000000
v -1.500000 -0.500000 0.000000
v -1.000000 -1.000000 0.000000
v -1.000000 1.000000 -1.000000
v -1.500000 0.500000 -1.500000
v -2.000000 0.000000 -2.000000
v -1.500000 -0.500000 -1.500000
v -1.000000 -1.000000 -1.000000
v 0.000000 1.000000 -1.000000
v 0.000000 0.500000 -1.500000
v 0.000001 0.000000 -2.000000
v 0.000000 -1.000000 -1.000000
v 0.000000 -2.000000 0.000000
v 0.000000 -0.500000 -1.500000
v 1.000000 1.000000 -1.000000
v 1.500000 0.500000 -1.500000
v 2.000000 0.000000 -2.000000
v 1.500000 -0.500000 -1.500000
v 1.000000 -1.000000 -1.000000
v 1.000000 1.000000 0.000000
v 1.500000 0.500000 0.000000
v 2.000000 0.000000 0.000000
v 1.500000 -0.500000 0.000000
v 1.000000 -1.000000 0.000000
v 1.000000 1.000000 0.000000
v 1.500000 0.500000 0.000000
v 2.000000 0.000000 0.000000
v 1.500000 -0.500000 0.000000
v 1.000000 -1.000000 0.000000
v 1.000000 1.000000 0.000000
v 1.500000 0.500000 0.000000
v 2.000000 0.000000 0.000000
v 1.500000 -0.500000 0.000000
v 1.000000 -1.000000 0.000000
v 1.000000 1.000000 0.000000
v 1.500000 0.500000 0.000000
v 2.000000 0.000000 0.000000
v 1.500000 -0.500000 0.000000
v 1.000000 -1.000000 0.000000
v 1.000000 1.000000 1.000000
v 1.500000 0.500000 1.500000
v 2.000000 0.000000 2.000000
v 1.500000 -0.500000 1.500000
v 1.000000 -1.000000 1.000000
v 0.000000 1.000000 1.000000
v 0.000000 0.500000 1.500000
v 0.000000 0.000000 2.000000
v 0.000000 -0.500000 1.500000
v 0.000000 -1.000000 1.000000
v 0.000000 1.000000 1.000000
v -0.000000 0.500000 1.500000
v -0.000000 0.000000 2.000000
v -0.000000 -0.500000 1.500000
v -0.000000 -1.000000 1.000000
v 0.000000 1.000000 1.000000
v 0.000000 0.500000 1.500000
v 0.000000 0.000000 2.000000
v 0.000000 -0.500000 1.500000
v 0.000000 -1.000000 1.000000
v -1.000000 1.000000 1.000000
v -1.500000 0.500000 1.500000
v -2.000000 0.000000 2.000000
v -1.500000 -0.500000 1.500000
v -1.000000 -1.000000 1.000000
v 0.000000 2.000000 0.000000
v -1.000000 1.000000 0.000000
v -1.500000 0.500000 -0.000000
v -2.000000 0.000000 0.000000
v -1.500000 -0.500000 0.000000
v -1.000000 -1.000000 0.000000
v -1.000000 1.000000 -0.000000
v -1.500000 0.500000 0.000000
v -2.000000 0.000000 -0.000001
v -1.500000 -0.500000 -0.000000
v -1.000000 -1.000000 -0.000000
v -1.000000 1.000000 -0.000000
v -1.500000 0.500000 0.000000
v -2.000000 0.000000 0.000000
v -1.500000 -0.500000 0.000000
v -1.000000 -1.000000 0.000000
v -1.000000 1.000000 -0.000000
v -1.500000 0.500000 0.000000
v -2.000000 0.000000 0.000000
v -1.500000 -0.500000 0.000000
v -1.000000 -1.000000 0.000000
v -1.000000 1.000000 -1.000000
v -1.500000 0.500000 -1.500000
v -2.000000 0.000000 -2.000000
v -1.500000 -0.500000 -1.500000
v -1.000000 -1.000000 -1.000000
v 0.000000 1.000000 -1.000000
v 0.000000 0.500000 -1.500000
v 0.000001 0.000000 -2.000000
v 0.000000 -1.000000 -1.000000
v 0.000000 -2.000000 0.000000
v 0.000000 -0.500000 -1.500000
v 1.000000 1.000000 -1.000000
v 1.500000 0.500000 -1.500000
v 2.000000 0.000000 -2.000000
v 1.500000 -0.500000 -1.500000
v 1.000000 -1.000000 -1.000000
v 1.000000 1.000000 0.000000
v 1.500000 0.500000 0.000000
v 2.000000 0.000000 0.000000
v 1.500000 -0.500000 0.000000
v 1.000000 -1.000000 0.000000
v 1.000000 1.000000 0.000000
v 1.500000 0.500000 0.000000
v 2.000000 0.000000 0.000000
v 1.500000 -0.500000 0.000000
v 1.000000 -1.000000 0.000000
v 1.000000 1.000000 0.000000
v 1.500000 0.500000 0.000000
v 2.000000 0.000000 0.000000
v 1.500000 -0.500000 0.000000
v 1.000000 -1.000000 0.000000
v 1.000000 1.000000 0.000000
v 1.500000 0.500000 0.000000
v 2.000000 0.000000 0.000000
v 1.500000 -0.500000 0.000000
v 1.000000 -1.000000 0.000000
v 1.000000 1.000000 1.000000
v 1.500000 0.500000 1.500000
v 2.000000 0.000000 2.000000
v 1.500000 -0.500000 1.500000
v 1.000000 -1.000000 1.000000
v 0.000000 1.000000 1.000000
v 0.000000 0.500000 1.500000
v 0.000000 0.000000 2.000000
v 0.000000 -0.500000 1.500000
v 0.000000 -1.000000 1.000000
v 0.000000 1.000000 1.000000
v -0.000000 0.500000 1.500000
v -0.000000 0.000000 2.000000
v -0.000000 -0.500000 1.500000
v -0.000000 -1.000000 1.000000
v 0.000000 1.000000 1.000000
v 0.000000 0.500000 1.500000
v 0.000000 0.000000 2.000000
v 0.000000 -0.500000 1.500000
v 0.000000 -1.000000 1.000000
v -1.000000 1.000000 1.000000
v -1.500000 0.500000 1.500000
v -2.000000 0.000000 2.000000
v -1.500000 -0.500000 1.500000
v -1.000000 -1.000000 1.000000
v 0.000000 2.000000 0.000000
v -1.000000 1.000000 0.000000
v -1.500000 0.500000 -0.000000
v -2.000000 0.000000 0.000000
v -1.500000 -0.500000 0.000000
v -1.000000 -1.000000 0.000000
v -1.000000 1.000000 -0.000000
v -1.500000 0.500000 0.000000
v -2.000000 0.000000 -0.000001
v -1.500000 -0.500000 -0.000000
v -1.000000 -1.000000 -0.000000
v -1.000000 1.000000 -0.000000
v -1.500000 0.500000 0.000000
v -2.000000 0.000000 0.000000
v -1.500000 -0.500000 0.000000
v -1.000000 -1.000000 0.000000
v -1.000000 1.000000 -0.000000
v -1.500000 0.500000 0.000000
v -2.000000 0.000000 0.000000
v -1.500000 -0.500000 0.000000
v -1.000000 -1.000000 0.000000
v -1.000000 1.000000 -1.000000
v -1.500000 0.500000 -1.500000
v -2.000000 0.000000 -2.000000
v -1.500000 -0.500000 -1.500000
v -1.000000 -1.000000 -1.000000
v 0.000000 1.000000 -1.000000
v 0.000000 0.500000 -1.500000
v 0.000001 0.000000 -2.000000
v 0.000000 -1.000000 -1.000000
v 0.000000 -2.000000 0.000000
v 0.000000 -0.500000 -1.500000
v 1.000000 1.000000 -1.000000
v 1.500000 0.500000 -1.500000
v 2.000000 0.000000 -2.000000
v 1.500000 -0.500000 -1.500000
v 1.000000 -1.000000 -1.000000
v 1.000000 1.000000 0.000000
v 1.500000 0.500000 0.000000
v 2.000000 0.000000 0.000000
v 1.500000 -0.500000 0.000000
v 1.000000 -1.000000 0.000000
v 1.000000 1.000000 0.000000
v 1.500000 0.500000 0.000000
v 2.000000 0.000000 0.000000
v 1.500000 -0.500000 0.000000
v 1.000000 -1.000000 0.000000
v 1.000000 1.000000 0.000000
v 1.500000 0.500000 0.000000
v 2.000000 0.000000 0.000000
v 1.500000 -0.500000 0.000000
v 1.000000 -1.000000 0.000000
v 1.000000 1.000000 0.000000
v 1.500000 0.500000 0.000000
v 2.000000 0.000000 0.000000
v 1.500000 -0.500000 0.000000
v 1.000000 -1.000000 0.000000
v 1.000000 1.000000 1.000000
v 1.500000 0.500000 1.500000
v 2.000000 0.000000 2.000000
v 1.500000 -0.500000 1.500000
v 1.000000 -1.000000 1.000000
v 0.000000 1.000000 1.000000
v 0.000000 0.500000 1.500000
v 0.000000 0.000000 2.000000
v 0.000000 -0.500000 1.500000
v 0.000000 -1.000000 1.000000
v 0.000000 1.000000 1.000000
v -0.000000 0.500000 1.500000
v -0.000000 0.000000 2.000000
v -0.000000 -0.500000 1.500000
v -0.000000 -1.000000 1.000000
v 0.000000 1.000000 1.000000
v 0.000000 0.500000 1.500000
v 0.000000 0.000000 2.000000
v 0.000000 -0.500000 1.500000
v 0.000000 -1.000000 1.000000
v -1.000000 1.000000 1.000000
v -1.500000 0.500000 1.500000
v -2.000000 0.000000 2.000000
v -1.500000 -0.500000 1.500000
v -1.000000 -1.000000 1.000000
v 0.000000 2.000000 0.000000
v -1.000000 1.000000 0.000000
v -1.500000 0.500000 -0.000000
v -2.000000 0.000000 0.000000
v -1.500000 -0.500000 0.000000
v -1.000000 -1.000000 0.000000
v -1.000000 1.000000 -0.000000
v -1.500000 0.500000 0.000000
v -2.000000 0.000000 -0.000001
v -1.500000 -0.500000 -0.000000
v -1.000000 -1.000000 -0.000000
v -1.000000 1.000000 -0.000000
v -1.500000 0.500000 0.000000
v -2.000000 0.000000 0.000000
v -1.500000 -0.500000 0.000000
v -1.000000 -1.000000 0.000000
v -1.000000 1.000000 -0.000000
v -1.500000 0.500000 0.000000
v -2.000000 0.000000 0.000000
v -1.500000 -0.500000 0.000000
v -1.000000 -1.000000 0.000000
v -1.000000 1.000000 -1.000000
v -1.500000 0.500000 -1.500000
v -2.000000 0.000000 -2.000000
v -1.500000 -0.500000 -1.500000
v -1.000000 -1.000000 -1.000000
v 0.000000 1.000000 -1.000000
v 0.000000 0.500000 -1.500000
v 0.000001 0.000000 -2.000000
v 0.000000 -1.000000 -1.000000
v 0.000000 -2.000000 0.000000
vn -0.0000 -0.7071 -0.7071
vn -0.0000 0.7071 -0.7071
vn 0.7071 0.7071 -0.0000
vn 0.7071 -0.7071 -0.0000
vn -0.0000 1.0000 -0.0000
vn -0.7071 -0.7071 -0.0000
vn -0.7071 0.7071 -0.0000
vn -0.0000 -0.7071 0.7071
vn -0.0000 0.7071 0.7071
vt 0.750000 0.166667
vt 0.750000 0.333333
vt 0.687500 0.333333
vt 0.687500 0.166667
vt 0.750000 0.500000
vt 0.750000 0.666667
vt 0.687500 0.666667
vt 0.687500 0.500000
vt 0.750000 0.833333
vt 0.718750 1.000000
vt 0.687500 0.833333
vt 0.718750 0.000000
vt 0.625000 0.666667
vt 0.625000 0.500000
vt 0.656250 1.000000
vt 0.625000 0.833333
vt 0.656250 0.000000
vt 0.625000 0.166667
vt 0.625000 0.333333
vt 0.593750 1.000000
vt 0.562500 0.833333
vt 0.593750 0.000000
vt 0.562500 0.166667
vt 0.562500 0.500000
vt 0.562500 0.333333
vt 0.562500 0.666667
vt 0.531250 0.000000
vt 0.500000 0.166667
vt 0.500000 0.500000
vt 0.500000 0.333333
vt 0.500000 0.833333
vt 0.500000 0.666667
vt 0.531250 1.000000
vt 0.468750 0.000000
vt 0.437500 0.166667
vt 0.437500 0.500000
vt 0.437500 0.333333
vt 0.437500 0.833333
vt 0.437500 0.666667
vt 0.468750 1.000000
vt 0.406250 0.000000
vt 0.375000 0.166667
vt 0.375000 0.500000
vt 0.375000 0.333333
vt 0.375000 0.833333
vt 0.375000 0.666667
vt 0.406250 1.000000
vt 0.312500 0.500000
vt 0.312500 0.333333
vt 0.312500 0.833333
vt 0.312500 0.666667
vt 0.312500 0.166667
vt 0.343750 1.000000
vt 0.343750 0.000000
vt 0.250000 0.833333
vt 0.250000 0.666667
vt 0.250000 0.333333
vt 0.250000 0.166667
vt 0.250000 0.500000
vt 0.281250 1.000000
vt 0.281250 0.000000
vt 0.187500 0.333333
vt 0.187500 0.166667
vt 0.187500 0.666667
vt 0.187500 0.500000
vt 0.218750 1.000000
vt 0.187500 0.833333
vt 0.218750 0.000000
vt 0.125000 0.333333
vt 0.125000 0.166667
vt 0.125000 0.666667
vt 0.125000 0.500000
vt 0.156250 1.000000
vt 0.125000 0.833333
vt 0.156250 0.000000
vt 0.062500 0.333333
vt 0.062500 0.166667
vt 0.062500 0.666667
vt 0.062500 0.500000
vt 0.093750 1.000000
vt 0.062500 0.833333
vt 0.093750 0.000000
vt 0.000000 0.333333
vt 0.000000 0.166667
vt 0.000000 0.666667
vt 0.000000 0.500000
vt 0.031250 1.000000
vt 0.000000 0.833333
vt 0.031250 0.000000
vt 1.000000 0.500000
vt 1.000000 0.666667
vt 0.937500 0.666667
vt 0.937500 0.500000
vt 1.000000 0.833333
vt 0.968750 1.000000
vt 0.937500 0.833333
vt 0.968750 0.000000
vt 1.000000 0.166667
vt 0.937500 0.166667
vt 1.000000 0.333333
vt 0.937500 0.333333
vt 0.906250 1.000000
vt 0.875000 0.833333
vt 0.906250 0.000000
vt 0.875000 0.166667
vt 0.875000 0.500000
vt 0.875000 0.333333
vt 0.875000 0.666667
vt 0.843750 0.000000
vt 0.812500 0.166667
vt 0.812500 0.500000
vt 0.812500 0.333333
vt 0.812500 0.833333
vt 0.812500 0.666667
vt 0.843750 1.000000
vt 0.781250 0.000000
vt 0.781250 1.000000
s 0
f 81/1/1 1/2/1 5/3/1 6/4/1
f 80/5/2 79/6/2 3/7/2 4/8/2
f 78/9/2 52/10/2 2/11/2
f 82/12/1 81/1/1 6/4/1
f 1/2/1 80/5/1 4/8/1 5/3/1
f 79/6/2 78/9/2 2/11/2 3/7/2
f 4/8/3 3/7/3 8/13/3 9/14/3
f 2/11/3 52/15/3 7/16/3
f 82/17/4 6/4/4 11/18/4
f 5/3/4 4/8/4 9/14/4 10/19/4
f 3/7/3 2/11/3 7/16/3 8/13/3
f 6/4/4 5/3/4 10/19/4 11/18/4
f 7/16/3 52/20/3 12/21/3
f 82/22/5 11/18/5 16/23/5
f 10/19/5 9/14/5 14/24/5 15/25/5
f 8/13/3 7/16/3 12/21/3 13/26/3
f 11/18/5 10/19/5 15/25/5 16/23/5
f 9/14/5 8/13/5 13/26/5 14/24/5
f 82/27/4 16/23/4 21/28/4
f 15/25/4 14/24/4 19/29/4 20/30/4
f 13/26/3 12/21/3 17/31/3 18/32/3
f 16/23/4 15/25/4 20/30/4 21/28/4
f 14/24/3 13/26/3 18/32/3 19/29/3
f 12/21/6 52/33/6 17/31/6
f 82/34/7 21/28/7 26/35/7
f 20/30/7 19/29/7 24/36/7 25/37/7
f 18/32/3 17/31/3 22/38/3 23/39/3
f 21/28/7 20/30/7 25/37/7 26/35/7
f 19/29/6 18/32/6 23/39/6 24/36/6
f 17/31/6 52/40/6 22/38/6
f 82/41/4 26/35/4 31/42/4
f 25/37/4 24/36/4 29/43/4 30/44/4
f 23/39/3 22/38/3 27/45/3 28/46/3
f 26/35/4 25/37/4 30/44/4 31/42/4
f 24/36/3 23/39/3 28/46/3 29/43/3
f 22/38/3 52/47/3 27/45/3
f 30/44/8 29/43/8 34/48/8 35/49/8
f 28/46/9 27/45/9 32/50/9 33/51/9
f 31/42/8 30/44/8 35/49/8 36/52/8
f 29/43/9 28/46/9 33/51/9 34/48/9
f 27/45/9 52/53/9 32/50/9
f 82/54/8 31/42/8 36/52/8
f 33/51/9 32/50/9 37/55/9 38/56/9
f 36/52/8 35/49/8 40/57/8 41/58/8
f 34/48/9 33/51/9 38/56/9 39/59/9
f 32/50/5 52/60/5 37/55/5
f 82/61/8 36/52/8 41/58/8
f 35/49/8 34/48/8 39/59/8 40/57/8
f 41/58/2 40/57/2 45/62/2 46/63/2
f 39/59/1 38/56/1 43/64/1 44/65/1
f 37/55/5 52/66/5 42/67/5
f 82/68/2 41/58/2 46/63/2
f 40/57/2 39/59/2 44/65/2 45/62/2
f 38/56/1 37/55/1 42/67/1 43/64/1
f 46/63/8 45/62/8 50/69/8 51/70/8
f 44/65/9 43/64/9 48/71/9 49/72/9
f 42/67/9 52/73/9 47/74/9
f 82/75/8 46/63/8 51/70/8
f 45/62/8 44/65/8 49/72/8 50/69/8
f 43/64/9 42/67/9 47/74/9 48/71/9
f 51/70/6 50/69/6 56/76/6 57/77/6
f 49/72/7 48/71/7 54/78/7 55/79/7
f 47/74/7 52/80/7 53/81/7
f 82/82/6 51/70/6 57/77/6
f 50/69/6 49/72/6 55/79/6 56/76/6
f 48/71/7 47/74/7 53/81/7 54/78/7
f 57/77/6 56/76/6 61/83/6 62/84/6
f 55/79/7 54/78/7 59/85/7 60/86/7
f 53/81/7 52/87/7 58/88/7
f 82/89/6 57/77/6 62/84/6
f 56/76/6 55/79/6 60/86/6 61/83/6
f 54/78/7 53/81/7 58/88/7 59/85/7
f 60/90/4 59/91/4 64/92/4 65/93/4
f 58/94/4 52/95/4 63/96/4
f 82/97/3 62/98/3 67/99/3
f 61/100/3 60/90/3 65/93/3 66/101/3
f 59/91/4 58/94/4 63/96/4 64/92/4
f 62/98/3 61/100/3 66/101/3 67/99/3
f 63/96/4 52/102/4 68/103/4
f 82/104/5 67/99/5 72/105/5
f 66/101/5 65/93/5 70/106/5 71/107/5
f 64/92/4 63/96/4 68/103/4 69/108/4
f 67/99/5 66/101/5 71/107/5 72/105/5
f 65/93/5 64/92/5 69/108/5 70/106/5
f 82/109/6 72/105/6 77/110/6
f 71/107/6 70/106/6 75/111/6 76/112/6
f 69/108/7 68/103/7 73/113/7 74/114/7
f 72/105/6 71/107/6 76/112/6 77/110/6
f 70/106/7 69/108/7 74/114/7 75/111/7
f 68/103/7 52/115/7 73/113/7
f 82/116/1 77/110/1 81/1/1
f 76/112/1 75/111/1 80/5/1 1/2/1
f 74/114/2 73/113/2 78/9/2 79/6/2
f 77/110/1 76/112/1 1/2/1 81/1/1
f 75/111/2 74/114/2 79/6/2 80/5/2
f 73/113/2 52/117/2 78/9/2
l 1 83
l 2 84
l 3 85
l 4 86
l 5 87
l 6 88
l 7 89
l 8 90
l 9 91
l 10 92
l 11 93
l 12 94
l 13 95
l 14 96
l 15 97
l 16 98
l 17 99
l 18 100
l 19 101
l 20 102
l 21 103
l 22 104
l 23 105
l 24 106
l 25 107
l 26 108
l 27 109
l 28 110
l 29 111
l 30 112
l 31 113
l 32 114
l 33 115
l 34 116
l 35 117
l 36 118
l 37 119
l 38 120
l 39 121
l 40 122
l 41 123
l 42 124
l 43 125
l 44 126
l 45 127
l 46 128
l 47 129
l 48 130
l 49 131
l 50 132
l 51 133
l 52 134
l 53 135
l 54 136
l 55 137
l 56 138
l 57 139
l 58 140
l 59 141
l 60 142
l 61 143
l 62 144
l 63 145
l 64 146
l 65 147
l 66 148
l 67 149
l 68 150
l 69 151
l 70 152
l 71 153
l 72 154
l 73 155
l 74 156
l 75 157
l 76 158
l 77 159
l 78 160
l 79 161
l 80 162
l 81 163
l 82 164
l 1 165
l 2 166
l 3 167
l 4 168
l 5 169
l 6 170
l 7 171
l 8 172
l 9 173
l 10 174
l 11 175
l 12 176
l 13 177
l 14 178
l 15 179
l 16 180
l 17 181
l 18 182
l 19 183
l 20 184
l 21 185
l 22 186
l 23 187
l 24 188
l 25 189
l 26 190
l 27 191
l 28 192
l 29 193
l 30 194
l 31 195
l 32 196
l 33 197
l 34 198
l 35 199
l 36 200
l 37 201
l 38 202
l 39 203
l 40 204
l 41 205
l 42 206
l 43 207
l 44 208
l 45 209
l 46 210
l 47 211
l 48 212
l 49 213
l 50 214
l 51 215
l 52 216
l 53 217
l 54 218
l 55 219
l 56 220
l 57 221
l 58 222
l 59 223
l 60 224
l 61 225
l 62 226
l 63 227
l 64 228
l 65 229
l 66 230
l 67 231
l 68 232
l 69 233
l 70 234
l 71 235
l 72 236
l 73 237
l 74 238
l 75 239
l 76 240
l 77 241
l 78 242
l 79 243
l 80 244
l 81 245
l 82 246
l 83 247
l 84 248
l 85 249
l 86 250
l 87 251
l 88 252
l 89 253
l 90 254
l 91 255
l 92 256
l 93 257
l 94 258
l 95 259
l 96 260
l 97 261
l 98 262
l 99 263
l 100 264
l 101 265
l 102 266
l 103 267
l 104 268
l 105 269
l 106 270
l 107 271
l 108 272
l 109 273
l 110 274
l 111 275
l 112 276
l 113 277
l 114 278
l 115 279
l 116 280
l 117 281
l 118 282
l 119 283
l 120 284
l 121 285
l 122 286
l 123 287
l 124 288
l 125 289
l 126 290
l 127 291
l 128 292
l 129 293
l 130 294
l 131 295
l 132 296
l 133 297
l 134 298
l 135 299
l 136 300
l 137 301
l 138 302
l 139 303
l 140 304
l 141 305
l 142 306
l 143 307
l 144 308
l 145 309
l 146 310
l 147 311
l 148 312
l 149 313
l 150 314
l 151 315
l 152 316
l 153 317
l 154 318
l 155 319
l 156 320
l 157 321
l 158 322
l 159 323
l 160 324
l 161 325
l 162 326
l 163 327
l 164 328
