# Blender 4.2.0
# www.blender.org
mtllib triangtest_pie.mtl
o Cube.001
v -0.500000 0.500000 0.500000
v -0.500000 0.500000 -0.500000
v 0.500000 0.500000 0.500000
v 0.500000 0.500000 -0.500000
v -0.609568 -0.000000 0.609568
v -0.609568 0.609568 0.000000
v -0.609568 -0.000000 -0.609568
v -0.000000 0.609568 -0.609568
v 0.609568 -0.000000 -0.609568
v 0.609568 0.609568 0.000000
v 0.609568 -0.000000 0.609568
v -0.000000 0.609568 0.609568
v -0.839506 0.000000 0.000000
v 0.000000 0.000000 -0.839506
v 0.839506 0.000000 0.000000
v -0.000000 0.000000 0.839506
v -0.000000 0.839506 0.000000
v -0.554784 0.554784 0.250000
v -0.554784 0.554784 -0.250000
v 0.554784 0.554784 -0.250000
v 0.554784 0.554784 0.250000
v -0.724537 0.000000 0.304784
v -0.724537 0.000000 -0.304784
v 0.724537 0.000000 -0.304784
v 0.724537 0.000000 0.304784
v -0.000000 0.724537 -0.304784
v -0.000000 0.724537 0.304784
vn -0.3061 0.3061 -0.9015
vn 0.3061 0.3061 -0.9015
vn 0.3061 0.3061 0.9015
vn -0.3061 0.3061 0.9015
vn 0.3220 0.8960 -0.3059
vn -0.3220 0.8960 -0.3059
vn -0.2880 0.9074 0.3061
vn 0.2880 0.9074 0.3061
vn 0.3220 0.8960 0.3059
vn -0.3220 0.8960 0.3059
vn -0.2880 0.9074 -0.3061
vn 0.2880 0.9074 -0.3061
vn 0.9015 0.3061 0.3061
vn -0.0000 -1.0000 -0.0000
vn -0.9015 0.3061 0.3061
vn -0.9015 0.3061 -0.3061
vn 0.9015 0.3061 -0.3061
vt 0.500000 0.250000
vt 0.625000 0.250000
vt 0.625000 0.375000
vt 0.500000 0.375000
vt 0.625000 0.500000
vt 0.500000 0.500000
vt 0.500000 0.750000
vt 0.625000 0.750000
vt 0.625000 0.875000
vt 0.500000 0.875000
vt 0.625000 1.000000
vt 0.500000 1.000000
vt 0.625000 0.562500
vt 0.750000 0.562500
vt 0.750000 0.625000
vt 0.625000 0.625000
vt 0.875000 0.562500
vt 0.875000 0.625000
vt 0.750000 0.687500
vt 0.875000 0.687500
vt 0.875000 0.750000
vt 0.750000 0.750000
vt 0.625000 0.687500
vt 0.750000 0.500000
vt 0.875000 0.500000
vt 0.000000 0.000000
s 0
f 7/1/1 2/2/1 8/3/1 14/4/1
f 14/4/2 8/3/2 4/5/2 9/6/2
f 11/7/3 3/8/3 12/9/3 16/10/3
f 16/10/4 12/9/4 1/11/4 5/12/4
f 20/13/5 26/14/5 17/15/5 10/16/5
f 26/14/6 19/17/6 6/18/6 17/15/6
f 27/19/7 18/20/7 1/21/7 12/22/7
f 21/23/8 27/19/8 12/22/8 3/8/8
f 10/16/9 17/15/9 27/19/9 21/23/9
f 17/15/10 6/18/10 18/20/10 27/19/10
f 8/24/11 2/25/11 19/17/11 26/14/11
f 4/5/12 8/24/12 26/14/12 20/13/12
f 15/26/13 10/16/13 21/23/13 3/8/13 11/7/13 25/26/13
f 22/26/14 13/26/14 23/26/14 7/1/14 14/4/14 9/6/14 24/26/14 15/26/14 25/26/14 11/7/14 16/10/14 5/12/14
f 5/12/15 1/21/15 18/20/15 6/18/15 13/26/15 22/26/15
f 13/26/16 6/18/16 19/17/16 2/2/16 7/1/16 23/26/16
f 9/6/17 4/5/17 20/13/17 10/16/17 15/26/17 24/26/17
